<?xml version="1.0" encoding="UTF-8" standalone="no"?>
<svg
   xmlns:dc="http://purl.org/dc/elements/1.1/"
   xmlns:cc="http://creativecommons.org/ns#"
   xmlns:rdf="http://www.w3.org/1999/02/22-rdf-syntax-ns#"
   xmlns:svg="http://www.w3.org/2000/svg"
   xmlns="http://www.w3.org/2000/svg"
   xmlns:sodipodi="http://sodipodi.sourceforge.net/DTD/sodipodi-0.dtd"
   xmlns:inkscape="http://www.inkscape.org/namespaces/inkscape"
   version="1.1"
   id="Layer_1"
   x="0px"
   y="0px"
   viewBox="0 0 136.05917 132.87099"
   xml:space="preserve"
   width="185.53458"
   height="181.18707"
   sodipodi:docname="humidity.svg"
   inkscape:version="0.92.4 (5da689c313, 2019-01-14)"><metadata
   id="metadata39"><rdf:RDF><cc:Work
       rdf:about=""><dc:format>image/svg+xml</dc:format><dc:type
         rdf:resource="http://purl.org/dc/dcmitype/StillImage" /><dc:title></dc:title></cc:Work></rdf:RDF></metadata><defs
   id="defs37" /><sodipodi:namedview
   pagecolor="#ffffff"
   bordercolor="#666666"
   borderopacity="1"
   objecttolerance="10"
   gridtolerance="10"
   guidetolerance="10"
   inkscape:pageopacity="0"
   inkscape:pageshadow="2"
   inkscape:window-width="1366"
   inkscape:window-height="721"
   id="namedview35"
   showgrid="false"
   inkscape:zoom="0.4609375"
   inkscape:cx="-280.38437"
   inkscape:cy="86.253434"
   inkscape:window-x="0"
   inkscape:window-y="25"
   inkscape:window-maximized="1"
   inkscape:current-layer="Layer_1"
   fit-margin-top="0"
   fit-margin-left="0"
   fit-margin-right="0"
   fit-margin-bottom="0" /><g
   id="g6"
   transform="matrix(0.362372,0,0,0.362372,2.3275549e-4,-1.5936815)"
   style="fill:#ffffff">
	<g
   id="g4"
   style="fill:#ffffff">
		<path
   style="fill:#ffffff"
   inkscape:connector-curvature="0"
   id="path2"
   class="active-path"
   data-original="#000000"
   d="m 375.467,149.363 c 0,-46.592 -67.584,-124.331 -81.152,-139.435 -6.654,-7.069 -17.779,-7.406 -24.849,-0.751 -0.258,0.243 -0.509,0.493 -0.751,0.751 -23.689,26.668 -44.83,55.494 -63.147,86.101 -11.093,-13.568 -19.627,-23.211 -22.443,-26.368 -6.654,-7.069 -17.779,-7.406 -24.849,-0.751 -0.258,0.243 -0.509,0.493 -0.751,0.751 -23.28,26.383 -44.883,54.199 -64.683,83.285 -7.851,-13.227 -15.445,-24.491 -19.541,-30.379 -5.361,-7.753 -15.992,-9.691 -23.744,-4.33 -1.693,1.171 -3.16,2.638 -4.33,4.33 -10.24,15.531 -45.227,68.267 -45.227,95.061 -0.142,30.88 23.277,56.778 54.016,59.733 14.241,64.424 78.011,105.106 142.436,90.866 54.655,-12.081 93.595,-60.491 93.681,-116.466 -0.052,-2.856 -0.28,-5.706 -0.683,-8.533 48.754,-4.09 86.189,-44.941 86.017,-93.865 z m -315.733,93.867 c -14.138,0 -25.6,-11.462 -25.6,-25.6 0,-8.533 11.691,-31.317 25.6,-54.016 13.909,22.699 25.6,45.483 25.6,54.016 0,14.138 -11.462,25.6 -25.6,25.6 z m 110.933,93.866 c -39.838,-0.219 -74.29,-27.816 -83.2,-66.645 19.647,-10.299 31.969,-30.638 32,-52.821 -0.668,-9.606 -3.098,-19.007 -7.168,-27.733 0.684,-3.758 2.2,-7.315 4.437,-10.411 16.539,-25.133 34.547,-49.267 53.931,-72.277 37.376,44.203 85.333,112.043 85.333,144.555 10e-4,47.127 -38.204,85.332 -85.333,85.332 z m 110.934,-128 h -2.048 c -13.687,-29.582 -30.63,-57.545 -50.517,-83.371 0.318,-1.052 0.778,-2.057 1.365,-2.987 14.384,-26.758 31.546,-51.928 51.2,-75.093 27.989,34.133 59.733,80.384 59.733,101.717 0,32.991 -26.744,59.734 -59.733,59.734 z" />
	</g>
</g><g
   id="g12"
   transform="matrix(0.362372,0,0,0.362372,2.3275549e-4,-1.5936815)"
   style="fill:#ffffff">
	<g
   id="g10"
   style="fill:#ffffff">
		<path
   style="fill:#ffffff"
   inkscape:connector-curvature="0"
   id="path8"
   class="active-path"
   data-original="#000000"
   d="m 325.724,129.757 c -0.124,-0.328 -0.269,-0.649 -0.432,-0.959 -1.365,-2.987 -2.901,-6.059 -4.523,-9.131 -2.523,-3.981 -7.795,-5.163 -11.776,-2.64 -3.63,2.3 -4.983,6.941 -3.158,10.832 1.451,2.645 2.816,5.376 3.925,7.936 1.667,4.408 6.592,6.63 11,4.962 4.408,-1.668 6.631,-6.592 4.964,-11 z" />
	</g>
</g><g
   id="g18"
   transform="matrix(0.362372,0,0,0.362372,2.3275549e-4,-1.5936815)"
   style="fill:#ffffff">
	<g
   id="g16"
   style="fill:#ffffff">
		<path
   style="fill:#ffffff"
   inkscape:connector-curvature="0"
   id="path14"
   class="active-path"
   data-original="#000000"
   d="m 309.846,101.917 c -7.083,-10.411 -14.592,-19.968 -19.627,-26.197 -2.787,-3.8 -8.127,-4.622 -11.928,-1.835 -3.8,2.787 -4.622,8.127 -1.835,11.928 0.167,0.228 0.346,0.448 0.536,0.659 4.864,5.973 12.032,15.104 18.688,25.003 2.639,3.912 7.95,4.943 11.861,2.304 3.913,-2.639 4.944,-7.95 2.305,-11.862 z" />
	</g>
</g><g
   id="g24"
   transform="matrix(0.362372,0,0,0.362372,2.3275549e-4,-1.5936815)"
   style="fill:#ffffff">
	<g
   id="g22"
   style="fill:#ffffff">
		<path
   style="fill:#ffffff"
   inkscape:connector-curvature="0"
   id="path20"
   class="active-path"
   data-original="#000000"
   d="m 195.969,306.589 c -1.343,-4.524 -6.1,-7.103 -10.624,-5.76 -4.763,1.42 -9.707,2.138 -14.677,2.133 -4.713,0 -8.533,3.82 -8.533,8.533 0,4.713 3.82,8.533 8.533,8.533 6.616,0.013 13.198,-0.935 19.541,-2.816 4.524,-1.342 7.103,-6.098 5.76,-10.623 z" />
	</g>
</g><g
   id="g30"
   transform="matrix(0.362372,0,0,0.362372,2.3275549e-4,-1.5936815)"
   style="fill:#ffffff">
	<g
   id="g28"
   style="fill:#ffffff">
		<path
   style="fill:#ffffff"
   inkscape:connector-curvature="0"
   id="path26"
   class="active-path"
   data-original="#000000"
   d="m 236.459,232.307 c -1.343,-4.524 -6.1,-7.103 -10.624,-5.76 -4.524,1.343 -7.103,6.1 -5.76,10.624 5.317,17.826 0.547,37.133 -12.459,50.432 -3.303,3.361 -3.256,8.764 0.105,12.068 1.505,1.479 3.504,2.348 5.612,2.439 2.28,-0.009 4.462,-0.931 6.059,-2.56 17.503,-17.638 24.04,-43.393 17.067,-67.243 z" />
	</g>
</g> </svg>