<?xml version="1.0" encoding="UTF-8" standalone="no"?>
<svg
   xmlns:dc="http://purl.org/dc/elements/1.1/"
   xmlns:cc="http://creativecommons.org/ns#"
   xmlns:rdf="http://www.w3.org/1999/02/22-rdf-syntax-ns#"
   xmlns:svg="http://www.w3.org/2000/svg"
   xmlns="http://www.w3.org/2000/svg"
   xmlns:sodipodi="http://sodipodi.sourceforge.net/DTD/sodipodi-0.dtd"
   xmlns:inkscape="http://www.inkscape.org/namespaces/inkscape"
   version="1.1"
   id="Capa_1"
   x="0px"
   y="0px"
   viewBox="0 0 88.220924 176.44185"
   xml:space="preserve"
   width="88.220924"
   height="176.44185"
   sodipodi:docname="weather.svg"
   inkscape:version="0.92.4 (5da689c313, 2019-01-14)"><metadata
   id="metadata27"><rdf:RDF><cc:Work
       rdf:about=""><dc:format>image/svg+xml</dc:format><dc:type
         rdf:resource="http://purl.org/dc/dcmitype/StillImage" /><dc:title></dc:title></cc:Work></rdf:RDF></metadata><defs
   id="defs25" /><sodipodi:namedview
   pagecolor="#ffffff"
   bordercolor="#666666"
   borderopacity="1"
   objecttolerance="10"
   gridtolerance="10"
   guidetolerance="10"
   inkscape:pageopacity="0"
   inkscape:pageshadow="2"
   inkscape:window-width="1366"
   inkscape:window-height="721"
   id="namedview23"
   showgrid="false"
   inkscape:zoom="0.4609375"
   inkscape:cx="-706.53354"
   inkscape:cy="83.881873"
   inkscape:window-x="0"
   inkscape:window-y="25"
   inkscape:window-maximized="1"
   inkscape:current-layer="Capa_1"
   fit-margin-top="0"
   fit-margin-left="0"
   fit-margin-right="0"
   fit-margin-bottom="0" /><g
   transform="matrix(0.344613,0,0,0.344613,-44.110464,0)"
   id="g20"
   style="fill:#ffffff"><g
     id="g6"
     style="fill:#ffffff">
	<g
   id="g4"
   style="fill:#ffffff">
		<path
   d="m 341.333,288.593 v -203.26 c 0,-47.128 -38.205,-85.333 -85.333,-85.333 -47.128,0 -85.333,38.205 -85.333,85.333 v 203.259 c -26.187,23.438 -42.667,57.499 -42.667,95.408 0,70.693 57.308,128 128,128 70.692,0 128,-57.307 128,-128 0,-37.909 -16.48,-71.97 -42.667,-95.407 z m -85.333,180.74 c -47.128,0 -85.333,-38.205 -85.333,-85.333 0,-24.637 10.441,-47.492 28.455,-63.615 l 14.212,-12.72 v -222.332 c 0,-23.564 19.103,-42.667 42.667,-42.667 23.564,0 42.667,19.102 42.667,42.667 v 222.332 l 14.212,12.72 c 18.014,16.123 28.455,38.977 28.455,63.615 -0.002,47.128 -38.207,85.333 -85.335,85.333 z"
   data-original="#000000"
   class="active-path"
   id="path2"
   style="fill:#ffffff"
   inkscape:connector-curvature="0" />
	</g>
</g><g
     id="g12"
     style="fill:#ffffff">
	<g
   id="g10"
   style="fill:#ffffff">
		<rect
   x="234.66701"
   y="170.66701"
   width="42.667"
   height="256"
   data-original="#000000"
   class="active-path"
   id="rect8"
   style="fill:#ffffff" />
	</g>
</g><g
     id="g18"
     style="fill:#ffffff">
	<g
   id="g16"
   style="fill:#ffffff">
		<circle
   cx="256"
   cy="384"
   r="64"
   data-original="#000000"
   class="active-path"
   id="circle14"
   style="fill:#ffffff" />
	</g>
</g></g> </svg>